<?xml version='1.0' encoding='utf-8'?>
<svg xmlns="http://www.w3.org/2000/svg" viewBox="0 0 1353.5 1666.5"> <path d="m653 1.5h5l13 7q13 7 27.25 14.25t18.5 9.5 5.25 2.75 16 8 28.5 13.5 17 8 11.5 5.5 12 5.5 17.5 8 31.5 13.5 41.5 16.5 25 9.5 18 6 25.5 8.5 9.5 3 30.5 9 37.5 11 28.5 6.5 36.5 7.5 60 11 54.5 9.5 23 3.5 26 4 22.25 4.75l9.25 2.75-1.5 65.5q-1.5 65.5-7.5 184.5t-8 146.5-6.5 58-7 45.5-6.5 33-6.5 30-6 26.5-7.5 30-10 37.5-6.5 24.5-8.5 28-20 57-14 35.5-6.5 16-19 42.5-20.5 41.5-18.25 33.5-13.5 24-9.25 15-15.25 24.75-11.5 17.5-11.5 17.5-12.5 18.5-10.5 14.5-8.5 12-5.5 8-8 11-11 15-21.5 25.5-18.5 21-4.25 4.75-14 15-26 27-18.25 17.75-20.25 18.25-25.75 23.25-18 16-23 20-21 17.5-16.5 13-26.5 18-22 13.5-14.75 9.5-10 7-17.5 9.75-27 12.5l-10.5 4-5-1.5q-5-1.5-15-6.5t-20.5-10.5-13-7.5-9.5-7-22.25-14.25-20.5-12.5-13.5-9-22-17.5-18-15.5-17.5-15-17.5-15-12.25-11.25-23.5-21-17.5-15.5-15-14-16.75-16.25-18-19.5-23-25-19.5-22.5-16.5-21-10-13.5-6.25-8.75-6.25-8.75-8.5-11.5-7.5-11.5-6.25-8.75-5.75-7.75-4.75-7.75-6.5-10-11.75-17.75-10.5-16.5-7-12-7-12-7.25-12.75-14.5-25.5-12-20.5-6.5-13-11-22-13.5-29.5-13.5-33-12.5-33-11-29.5-9-26.5-8.25-25.25-3.5-11-3.75-14.75-11.5-44-9.5-38-6.5-29-8-37.5-7-38.5-5.5-38-5-62.5-4.5-75.5-3-56-5-100.5-3.5-109.5v-36l3.25-1.75q3.25-1.75 26.25-5.25t24-4 16.5-3 34.5-5.5 44.5-7.5 59-11.5 55.5-12.5 52.5-15 37-11.5 37.5-13.5 50-19.5 27.5-11.5 38.75-17.75 34-16 22.25-10.75 27.5-13.5 24-12 19-9.5 7-4 4.5-3l1.5-1h5z" fill="#fff" fill-rule="evenodd" stroke="#000" stroke-width="2"/> </svg>